# This file uses centimeters as units for non-parametric coordinates.

mtllib BLeg.mtl
g default
v -0.197374 -0.511980 0.231719
v 0.197374 -0.511980 0.231719
v -0.061480 -0.148738 0.069179
v 0.061480 -0.148738 0.069179
v -0.061480 -0.148738 -0.069179
v 0.061480 -0.148738 -0.069179
v -0.135147 -0.511980 -0.198371
v 0.135147 -0.511980 -0.198371
v -0.168477 -0.298492 0.167895
v 0.168477 -0.298492 0.167895
v 0.110133 -0.266100 -0.159230
v -0.110133 -0.266100 -0.159230
v -0.061480 0.026087 0.069179
v 0.061480 0.026087 0.069179
v 0.061480 0.026087 -0.069179
v -0.061480 0.026087 -0.069179
v -0.095406 -0.675178 -0.135134
v 0.095406 -0.675178 -0.135134
v -0.139334 -0.675178 0.168483
v 0.139334 -0.675178 0.168483
v -0.095406 -0.732312 -0.135134
v 0.095406 -0.732312 -0.135134
v -0.139334 -0.732312 0.168483
v 0.139333 -0.732312 0.168483
v -0.139334 -0.675178 0.333211
v 0.139334 -0.675178 0.333211
v -0.139334 -0.732312 0.333211
v 0.139334 -0.732312 0.333211
vt 0.375000 0.000000
vt 0.625000 0.000000
vt 0.375000 0.250000
vt 0.625000 0.250000
vt 0.375000 0.500000
vt 0.625000 0.500000
vt 0.375000 0.750000
vt 0.625000 0.750000
vt 0.375000 1.000000
vt 0.625000 1.000000
vt 0.875000 0.000000
vt 0.875000 0.250000
vt 0.125000 0.000000
vt 0.125000 0.250000
vt 0.375000 0.236442
vt 0.625000 0.236442
vt 0.625000 0.513558
vt 0.875000 0.236442
vt 0.125000 0.236442
vt 0.375000 0.513558
vt 0.375000 0.250000
vt 0.625000 0.250000
vt 0.625000 0.500000
vt 0.375000 0.500000
vt 0.375000 0.750000
vt 0.625000 0.750000
vt 0.375000 1.000000
vt 0.625000 1.000000
vt 0.375000 0.750000
vt 0.625000 0.750000
vt 0.375000 1.000000
vt 0.625000 1.000000
vt 0.625000 1.000000
vt 0.375000 1.000000
vt 0.375000 1.000000
vt 0.625000 1.000000
vn 0.000000 0.370193 0.928955
vn 0.000000 0.361864 0.932231
vn 0.000000 0.550368 0.834922
vn 0.000000 0.550368 0.834922
vn 0.000000 1.000000 -0.000000
vn 0.000000 1.000000 -0.000000
vn 0.000000 1.000000 -0.000000
vn 0.000000 1.000000 0.000000
vn -0.000000 0.608747 -0.793364
vn -0.000000 0.608747 -0.793364
vn -0.000000 0.283602 -0.958942
vn 0.000000 0.293069 -0.956091
vn 0.000000 -1.000000 -0.000000
vn 0.000000 -1.000000 -0.000000
vn 0.000000 -1.000000 -0.000000
vn 0.000000 -1.000000 -0.000000
vn 0.970066 0.198619 -0.139725
vn 0.963692 0.224884 -0.143961
vn 0.848338 0.522159 -0.087595
vn 0.923769 0.382951 0.000000
vn -0.970066 0.198619 -0.139725
vn -0.848338 0.522159 -0.087595
vn -0.963692 0.224884 -0.143961
vn -0.923768 0.382952 -0.000000
vn 0.000000 0.057355 0.998354
vn 0.000000 0.009464 0.999955
vn 0.987294 -0.069613 -0.142843
vn 0.987848 -0.037497 -0.150835
vn 0.000000 -0.059025 -0.998257
vn 0.000000 -0.026754 -0.999642
vn -0.987294 -0.069613 -0.142844
vn -0.987848 -0.037497 -0.150835
vn -0.000000 0.000000 1.000000
vn -0.000000 0.000000 1.000000
vn -0.000000 0.000000 1.000000
vn -0.000000 0.000000 1.000000
vn 1.000000 0.000000 0.000000
vn 1.000000 0.000000 0.000000
vn 1.000000 0.000000 0.000000
vn 1.000000 0.000000 0.000000
vn -0.000000 0.000000 -1.000000
vn -0.000000 0.000000 -1.000000
vn -0.000000 0.000000 -1.000000
vn -0.000000 0.000000 -1.000000
vn -1.000000 0.000000 -0.000000
vn -1.000000 0.000000 -0.000000
vn -1.000000 0.000000 -0.000000
vn -1.000000 0.000000 -0.000000
vn 0.000000 -0.297790 -0.954631
vn 0.000000 -0.284335 -0.958725
vn -0.967411 -0.218558 -0.127863
vn -0.964563 -0.223925 -0.139555
vn 0.967411 -0.218558 -0.127863
vn 0.964563 -0.223925 -0.139555
vn 0.000000 -0.361306 0.932447
vn 0.000000 -0.361305 0.932448
vn 0.000000 0.000000 -1.000000
vn 0.000000 0.000000 -1.000000
vn -0.995630 -0.000001 -0.093384
vn -0.989695 0.000000 -0.143191
vn 0.989695 -0.000000 -0.143191
vn 0.995630 -0.000001 -0.093384
vn 0.000000 0.000000 1.000000
vn 0.000000 0.000000 1.000000
vn 0.000000 0.000000 1.000000
vn 0.000000 0.000000 1.000000
vn 0.000000 1.000000 0.000000
vn 0.000000 1.000000 0.000000
vn 0.000000 1.000000 0.000000
vn 0.000000 1.000000 0.000000
vn -1.000000 -0.000000 -0.000000
vn -1.000000 0.000000 -0.000000
vn 0.000000 -1.000000 -0.000000
vn 0.000000 -1.000000 0.000000
vn 1.000000 -0.000000 -0.000000
vn 1.000000 0.000000 0.000000
s 1
g LowerLeg
usemtl initialShadingGroup
f 9/15/1 10/16/2 3/3/3
f 3/3/3 10/16/2 4/4/4
s 2
f 13/21/5 14/22/6 16/24/7
f 16/24/7 14/22/6 15/23/8
s 3
f 5/5/9 6/6/10 12/20/11
f 12/20/11 6/6/10 11/17/12
s 4
f 21/29/13 22/30/14 23/31/15
f 23/31/15 22/30/14 24/32/16
s 5
f 10/16/17 11/18/18 4/4/19
f 4/4/19 11/18/18 6/12/20
s 6
f 9/15/21 3/3/22 12/19/23
f 12/19/23 3/3/22 5/14/24
s 1
f 1/1/25 2/2/26 9/15/1
f 9/15/1 2/2/26 10/16/2
s 5
f 2/2/27 8/11/28 10/16/17
f 10/16/17 8/11/28 11/18/18
s 3
f 12/20/11 11/17/12 7/7/29
f 7/7/29 11/17/12 8/8/30
s 6
f 1/1/31 9/15/21 7/13/32
f 7/13/32 9/15/21 12/19/23
s 9
f 3/3/33 4/4/34 13/21/35
f 13/21/35 4/4/34 14/22/36
s 10
f 4/4/37 6/6/38 14/22/39
f 14/22/39 6/6/38 15/23/40
s 11
f 6/6/41 5/5/42 15/23/43
f 15/23/43 5/5/42 16/24/44
s 12
f 5/5/45 3/3/46 16/24/47
f 16/24/47 3/3/46 13/21/48
s 3
f 7/7/29 8/8/30 17/25/49
f 17/25/49 8/8/30 18/26/50
s 6
f 1/9/31 7/7/32 19/27/51
f 19/27/51 7/7/32 17/25/52
s 5
f 2/10/27 20/28/53 8/8/28
f 8/8/28 20/28/53 18/26/54
s 1
f 2/10/26 1/9/25 20/28/55
f 20/28/55 1/9/25 19/27/56
s 3
f 17/25/49 18/26/50 21/29/57
f 21/29/57 18/26/50 22/30/58
s 6
f 19/27/51 17/25/52 23/31/59
f 23/31/59 17/25/52 21/29/60
s 5
f 18/26/54 20/28/53 22/30/61
f 22/30/61 20/28/53 24/32/62
s 13
f 26/33/63 25/34/64 28/36/65
f 28/36/65 25/34/64 27/35/66
s 14
f 20/28/67 19/27/68 26/33/69
f 26/33/69 19/27/68 25/34/70
s 6
f 19/27/51 23/31/59 25/34/71
f 25/34/71 23/31/59 27/35/72
s 4
f 23/31/15 24/32/16 27/35/73
f 27/35/73 24/32/16 28/36/74
s 5
f 24/32/62 20/28/53 28/36/75
f 28/36/75 20/28/53 26/33/76
