# This file uses centimeters as units for non-parametric coordinates.

mtllib Hips.mtl
g default
v -0.431483 -0.317525 0.124542
v 0.431483 -0.317525 0.124542
v -0.431483 -0.072277 0.124542
v 0.431483 -0.072277 0.124542
v -0.431483 -0.072277 -0.124542
v 0.431483 -0.072277 -0.124542
v -0.431483 -0.317525 -0.124542
v 0.431483 -0.317525 -0.124542
v -0.431483 -0.109514 0.124542
v -0.431483 -0.109514 -0.124542
v 0.431483 -0.109514 -0.124542
v 0.431483 -0.109514 0.124542
v -0.327971 0.000000 0.197950
v -0.327971 0.000000 -0.197950
v -0.327971 -0.059185 -0.197950
v -0.327971 -0.389802 -0.197950
v -0.327971 -0.389802 0.197950
v -0.327971 -0.059185 0.197950
v 0.314214 0.000000 0.197950
v 0.314214 0.000000 -0.197950
v 0.314214 -0.059185 -0.197950
v 0.314214 -0.389802 -0.197950
v 0.314214 -0.389802 0.197950
v 0.314214 -0.059185 0.197950
vt 0.375000 0.000000
vt 0.625000 0.000000
vt 0.375000 0.250000
vt 0.625000 0.250000
vt 0.375000 0.500000
vt 0.625000 0.500000
vt 0.375000 0.750000
vt 0.625000 0.750000
vt 0.375000 1.000000
vt 0.625000 1.000000
vt 0.875000 0.000000
vt 0.875000 0.250000
vt 0.125000 0.000000
vt 0.125000 0.250000
vt 0.375000 0.212042
vt 0.125000 0.212042
vt 0.375000 0.537958
vt 0.625000 0.537958
vt 0.875000 0.212042
vt 0.625000 0.212042
vt 0.409580 0.250000
vt 0.409580 0.500000
vt 0.409580 0.537958
vt 0.409580 0.750000
vt 0.409580 0.000000
vt 0.409580 1.000000
vt 0.409580 0.212042
vt 0.587218 0.250000
vt 0.587218 0.500000
vt 0.587218 0.537958
vt 0.587218 0.750000
vt 0.587218 0.000000
vt 0.587218 1.000000
vt 0.587218 0.212042
vn -0.068995 0.000000 0.997617
vn -0.069445 0.000000 0.997586
vn -0.578474 0.000000 0.815701
vn -0.578474 0.000000 0.815701
vn -0.572499 0.819905 0.000000
vn -0.052611 0.998615 0.000000
vn -0.572499 0.819905 0.000000
vn -0.067419 0.997725 0.000000
vn -0.578474 0.000000 -0.815701
vn -0.069445 0.000000 -0.997586
vn -0.578474 0.000000 -0.815701
vn -0.068995 0.000000 -0.997617
vn -0.572499 -0.819905 0.000000
vn -0.052611 -0.998615 0.000000
vn -0.572499 -0.819905 0.000000
vn -0.067419 -0.997725 0.000000
vn 1.000000 0.000000 0.000000
vn 1.000000 0.000000 0.000000
vn 1.000000 0.000000 0.000000
vn 1.000000 0.000000 0.000000
vn -1.000000 0.000000 0.000000
vn -1.000000 0.000000 0.000000
vn -1.000000 0.000000 0.000000
vn -1.000000 0.000000 0.000000
vn -1.000000 0.000000 0.000000
vn -1.000000 0.000000 0.000000
vn -0.068995 0.000000 -0.997617
vn -0.578474 0.000000 -0.815701
vn 1.000000 0.000000 0.000000
vn 1.000000 0.000000 0.000000
vn -0.578474 0.000000 0.815701
vn -0.068995 0.000000 0.997617
vn 0.068655 0.997640 0.000000
vn 0.054154 0.998533 0.000000
vn 0.069875 0.000000 -0.997556
vn 0.070191 0.000000 -0.997534
vn 0.070191 0.000000 -0.997534
vn 0.068655 -0.997640 0.000000
vn 0.054154 -0.998533 0.000000
vn 0.069875 0.000000 0.997556
vn 0.070191 0.000000 0.997534
vn 0.070191 0.000000 0.997534
vn 0.524685 0.851296 0.000000
vn 0.524685 0.851297 0.000000
vn 0.530595 0.000000 -0.847625
vn 0.530595 0.000000 -0.847625
vn 0.530595 0.000000 -0.847625
vn 0.524685 -0.851296 0.000000
vn 0.524685 -0.851297 0.000000
vn 0.530595 0.000000 0.847625
vn 0.530595 0.000000 0.847625
vn 0.530595 0.000000 0.847625
s 1
g Hip
usemtl initialShadingGroup
f 17/25/1 18/27/2 1/1/3
f 1/1/3 18/27/2 9/15/4
s 2
f 3/3/5 13/21/6 5/5/7
f 5/5/7 13/21/6 14/22/8
s 3
f 10/17/9 15/23/10 7/7/11
f 7/7/11 15/23/10 16/24/12
s 4
f 7/7/13 16/24/14 1/9/15
f 1/9/15 16/24/14 17/26/16
s 5
f 2/2/17 8/11/18 12/20/19
f 12/20/19 8/11/18 11/19/20
s 6
f 7/13/21 1/1/22 10/16/23
f 10/16/23 1/1/22 9/15/24
f 10/16/23 9/15/24 5/14/25
f 5/14/25 9/15/24 3/3/26
s 3
f 14/22/27 15/23/10 5/5/28
f 5/5/28 15/23/10 10/17/9
s 5
f 12/20/19 11/19/20 4/4/29
f 4/4/29 11/19/20 6/12/30
s 1
f 9/15/4 18/27/2 3/3/31
f 3/3/31 18/27/2 13/21/32
s 2
f 13/21/6 19/28/33 14/22/8
f 14/22/8 19/28/33 20/29/34
s 3
f 15/23/10 14/22/27 21/30/35
f 21/30/35 14/22/27 20/29/36
f 16/24/12 15/23/10 22/31/37
f 22/31/37 15/23/10 21/30/35
s 4
f 17/26/16 16/24/14 23/33/38
f 23/33/38 16/24/14 22/31/39
s 1
f 18/27/2 17/25/1 24/34/40
f 24/34/40 17/25/1 23/32/41
f 13/21/32 18/27/2 19/28/42
f 19/28/42 18/27/2 24/34/40
s 2
f 19/28/33 4/4/43 20/29/34
f 20/29/34 4/4/43 6/6/44
s 3
f 20/29/36 6/6/45 21/30/35
f 21/30/35 6/6/45 11/18/46
f 22/31/37 21/30/35 8/8/47
f 8/8/47 21/30/35 11/18/46
s 4
f 23/33/38 22/31/39 2/10/48
f 2/10/48 22/31/39 8/8/49
s 1
f 23/32/41 2/2/50 24/34/40
f 24/34/40 2/2/50 12/20/51
f 19/28/42 24/34/40 4/4/52
f 4/4/52 24/34/40 12/20/51
