# This file uses centimeters as units for non-parametric coordinates.

mtllib LULeg.mtl
g default
v -0.061480 -0.574962 0.069179
v 0.061480 -0.574962 0.069179
v -0.035929 0.332499 0.159996
v 0.162916 0.332499 0.159996
v -0.035929 0.332499 -0.159996
v 0.162916 0.332499 -0.159996
v -0.061480 -0.574962 -0.069179
v 0.061480 -0.574962 -0.069179
v -0.113771 0.150934 0.219790
v -0.113771 0.150934 -0.219790
v 0.216858 0.222480 -0.219790
v 0.216858 0.222480 0.219790
v -0.306428 -0.207553 0.235381
v -0.306427 -0.207553 -0.235381
v 0.237155 -0.136007 -0.235381
v 0.237155 -0.136007 0.235381
v 0.202086 -0.233205 0.227105
v -0.247459 -0.332479 0.227105
v -0.247459 -0.332479 -0.227105
v 0.202086 -0.233205 -0.227105
v 0.063678 -0.393650 0.060365
v -0.063678 -0.492924 0.060365
v -0.063678 -0.492924 -0.060365
v 0.063678 -0.393650 -0.060365
vt 0.375000 0.000000
vt 0.625000 0.000000
vt 0.375000 0.250000
vt 0.625000 0.250000
vt 0.375000 0.500000
vt 0.625000 0.500000
vt 0.375000 0.750000
vt 0.625000 0.750000
vt 0.375000 1.000000
vt 0.625000 1.000000
vt 0.875000 0.000000
vt 0.875000 0.250000
vt 0.125000 0.000000
vt 0.125000 0.250000
vt 0.375000 0.222193
vt 0.125000 0.222193
vt 0.375000 0.527807
vt 0.625000 0.527807
vt 0.875000 0.222193
vt 0.625000 0.222193
vt 0.375000 0.078116
vt 0.125000 0.078116
vt 0.375000 0.671885
vt 0.625000 0.671885
vt 0.875000 0.078116
vt 0.625000 0.078116
vt 0.625000 0.036653
vt 0.375000 0.036653
vt 0.125000 0.036653
vt 0.375000 0.713347
vt 0.625000 0.713347
vt 0.875000 0.036653
vt 0.625000 0.021735
vt 0.375000 0.021735
vt 0.125000 0.021735
vt 0.375000 0.728266
vt 0.625000 0.728266
vt 0.875000 0.021735
vn 0.000000 0.106820 0.994278
vn -0.030368 0.060856 0.997685
vn -0.028454 0.063762 0.997559
vn -0.038180 0.048980 0.998070
vn 0.000000 1.000000 0.000000
vn 0.000000 1.000000 0.000000
vn 0.000000 1.000000 0.000000
vn 0.000000 1.000000 0.000000
vn -0.038180 0.048980 -0.998070
vn -0.030368 0.060856 -0.997685
vn -0.028454 0.063762 -0.997559
vn 0.000000 0.106820 -0.994278
vn 0.000000 -1.000000 0.000000
vn 0.000000 -1.000000 0.000000
vn 0.000000 -1.000000 0.000000
vn 0.000000 -1.000000 0.000000
vn 0.999927 -0.012121 0.000000
vn 0.999927 -0.012121 -0.000000
vn 0.999927 -0.012121 -0.000000
vn 0.999927 -0.012121 -0.000000
vn -0.999641 -0.026781 0.000000
vn -0.999641 -0.026782 -0.000000
vn -0.999641 -0.026781 -0.000000
vn -0.999641 -0.026782 -0.000000
vn -0.919092 0.394042 0.000000
vn -0.919093 0.394042 0.000000
vn -0.919092 0.394042 0.000000
vn -0.919093 0.394042 0.000000
vn 0.000000 0.477520 -0.878621
vn -0.050551 0.384748 -0.921636
vn -0.065198 0.356697 -0.931942
vn -0.073637 0.340291 -0.937432
vn 0.897885 0.440230 -0.000000
vn 0.897885 0.440229 -0.000000
vn 0.897885 0.440230 -0.000000
vn 0.897885 0.440229 0.000000
vn -0.073637 0.340291 0.937432
vn -0.050551 0.384748 0.921636
vn -0.065198 0.356697 0.931942
vn 0.000000 0.477520 0.878621
vn -0.880856 0.473384 -0.000000
vn -0.880856 0.473384 -0.000000
vn -0.880856 0.473384 -0.000000
vn -0.880856 0.473384 0.000000
vn -0.009288 0.042923 -0.999035
vn -0.007413 0.045212 -0.998950
vn -0.007099 0.045594 -0.998935
vn -0.006153 0.046749 -0.998888
vn 0.998401 0.056527 -0.000000
vn 0.998401 0.056527 -0.000000
vn 0.998401 0.056527 -0.000000
vn 0.998401 0.056527 -0.000000
vn -0.006153 0.046749 0.998888
vn -0.007413 0.045212 0.998950
vn -0.007099 0.045594 0.998935
vn -0.009288 0.042923 0.999035
vn 0.013222 -0.059876 0.998118
vn 0.011944 -0.084646 0.996339
vn 0.013042 -0.063394 0.997903
vn 0.011717 -0.089023 0.995961
vn -0.904315 -0.426865 0.000000
vn -0.904315 -0.426865 -0.000000
vn -0.904315 -0.426865 -0.000000
vn -0.904315 -0.426866 -0.000000
vn 0.011717 -0.089023 -0.995961
vn 0.011944 -0.084646 -0.996340
vn 0.013042 -0.063394 -0.997903
vn 0.013222 -0.059876 -0.998118
vn 0.940649 -0.339382 -0.000000
vn 0.940649 -0.339382 -0.000000
vn 0.940649 -0.339382 -0.000000
vn 0.940649 -0.339382 -0.000000
vn 0.351243 -0.450599 0.820725
vn 0.215039 -0.716152 0.663991
vn 0.223336 -0.703399 0.674797
vn 0.171631 -0.777203 0.605391
vn -0.657661 -0.753314 0.000000
vn -0.657661 -0.753314 -0.000000
vn -0.657661 -0.753314 -0.000000
vn -0.657661 -0.753314 -0.000000
vn 0.171631 -0.777203 -0.605391
vn 0.215039 -0.716152 -0.663991
vn 0.223336 -0.703399 -0.674796
vn 0.351243 -0.450599 -0.820725
vn 0.757190 -0.653194 -0.000000
vn 0.757190 -0.653195 -0.000000
vn 0.757190 -0.653194 -0.000000
vn 0.757190 -0.653194 -0.000000
s 1
g LUleg
usemtl initialShadingGroup
f 1/1/1 2/2/2 22/34/3
f 22/34/3 2/2/2 21/33/4
s 2
f 3/3/5 4/4/6 5/5/7
f 5/5/7 4/4/6 6/6/8
s 3
f 24/37/9 8/8/10 23/36/11
f 23/36/11 8/8/10 7/7/12
s 4
f 7/7/13 8/8/14 1/9/15
f 1/9/15 8/8/14 2/10/16
s 5
f 2/2/17 8/11/18 21/33/19
f 21/33/19 8/11/18 24/38/20
s 6
f 7/13/21 1/1/22 23/35/23
f 23/35/23 1/1/22 22/34/24
s 7
f 10/16/25 9/15/26 5/14/27
f 5/14/27 9/15/26 3/3/28
s 8
f 6/6/29 11/18/30 5/5/31
f 5/5/31 11/18/30 10/17/32
s 9
f 12/20/33 11/19/34 4/4/35
f 4/4/35 11/19/34 6/12/36
s 10
f 9/15/37 12/20/38 3/3/39
f 3/3/39 12/20/38 4/4/40
s 11
f 14/22/41 13/21/42 10/16/43
f 10/16/43 13/21/42 9/15/44
s 12
f 11/18/45 15/24/46 10/17/47
f 10/17/47 15/24/46 14/23/48
s 13
f 16/26/49 15/25/50 12/20/51
f 12/20/51 15/25/50 11/19/52
s 14
f 13/21/53 16/26/54 9/15/55
f 9/15/55 16/26/54 12/20/56
s 15
f 18/28/57 17/27/58 13/21/59
f 13/21/59 17/27/58 16/26/60
s 16
f 19/29/61 18/28/62 14/22/63
f 14/22/63 18/28/62 13/21/64
s 17
f 15/24/65 20/31/66 14/23/67
f 14/23/67 20/31/66 19/30/68
s 18
f 17/27/69 20/32/70 16/26/71
f 16/26/71 20/32/70 15/25/72
s 19
f 22/34/73 21/33/74 18/28/75
f 18/28/75 21/33/74 17/27/76
s 20
f 23/35/77 22/34/78 19/29/79
f 19/29/79 22/34/78 18/28/80
s 21
f 20/31/81 24/37/82 19/30/83
f 19/30/83 24/37/82 23/36/84
s 22
f 21/33/85 24/38/86 17/27/87
f 17/27/87 24/38/86 20/32/88
