# This file uses centimeters as units for non-parametric coordinates.

mtllib Torso.mtl
g default
v -0.256437 0.000000 0.174338
v 0.243563 0.000000 0.174338
v -0.506437 1.254837 0.427981
v 0.493563 1.254837 0.427981
v -0.506437 1.254837 -0.385252
v 0.493563 1.254837 -0.385252
v -0.256437 0.000000 -0.174338
v 0.243563 0.000000 -0.174338
v 0.493563 0.961539 0.427981
v -0.506437 0.961539 0.427981
v -0.506437 0.961539 -0.385252
v 0.493563 0.961539 -0.385252
vt 0.375000 0.000000
vt 0.625000 0.000000
vt 0.375000 0.250000
vt 0.625000 0.250000
vt 0.375000 0.500000
vt 0.625000 0.500000
vt 0.375000 0.750000
vt 0.625000 0.750000
vt 0.375000 1.000000
vt 0.625000 1.000000
vt 0.875000 0.000000
vt 0.875000 0.250000
vt 0.125000 0.000000
vt 0.125000 0.250000
vt 0.625000 0.210767
vt 0.375000 0.210767
vt 0.125000 0.210767
vt 0.375000 0.539233
vt 0.625000 0.539233
vt 0.875000 0.210767
vn 0.000000 -0.255064 0.966924
vn 0.000000 -0.255064 0.966924
vn 0.000000 -0.181891 0.983319
vn 0.000000 -0.190178 0.981750
vn 0.000000 1.000000 0.000000
vn 0.000000 1.000000 0.000000
vn 0.000000 1.000000 0.000000
vn 0.000000 1.000000 0.000000
vn 0.000000 -0.158954 -0.987286
vn 0.000000 -0.151882 -0.988399
vn 0.000000 -0.214256 -0.976778
vn 0.000000 -0.214256 -0.976778
vn 0.000000 -1.000000 0.000000
vn 0.000000 -1.000000 0.000000
vn 0.000000 -1.000000 0.000000
vn 0.000000 -1.000000 0.000000
vn 0.967823 -0.251634 0.000000
vn 0.983266 -0.182179 0.000000
vn 0.967823 -0.251634 0.000000
vn 0.982282 -0.187409 0.000000
vn -0.967823 -0.251634 0.000000
vn -0.967823 -0.251634 0.000000
vn -0.983266 -0.182178 0.000000
vn -0.982282 -0.187409 0.000000
vn 0.000000 0.000000 1.000000
vn 0.000000 0.000000 1.000000
vn -1.000000 -0.000000 0.000000
vn -1.000000 0.000000 0.000000
vn 0.000000 -0.000000 -1.000000
vn 0.000000 -0.000000 -1.000000
vn 1.000000 -0.000000 0.000000
vn 1.000000 -0.000000 0.000000
s 1
g Torso
usemtl initialShadingGroup
f 1/1/1 2/2/2 10/16/3
f 10/16/3 2/2/2 9/15/4
s 2
f 3/3/5 4/4/6 5/5/7
f 5/5/7 4/4/6 6/6/8
s 3
f 11/18/9 12/19/10 7/7/11
f 7/7/11 12/19/10 8/8/12
s 4
f 7/7/13 8/8/14 1/9/15
f 1/9/15 8/8/14 2/10/16
s 5
f 8/11/17 12/20/18 2/2/19
f 2/2/19 12/20/18 9/15/20
s 6
f 7/13/21 1/1/22 11/17/23
f 11/17/23 1/1/22 10/16/24
s 1
f 10/16/3 9/15/4 3/3/25
f 3/3/25 9/15/4 4/4/26
s 6
f 11/17/23 10/16/24 5/14/27
f 5/14/27 10/16/24 3/3/28
s 3
f 5/5/29 6/6/30 11/18/9
f 11/18/9 6/6/30 12/19/10
s 5
f 9/15/20 12/20/18 4/4/31
f 4/4/31 12/20/18 6/12/32
